# xmcd
#
# Track frame offsets: 
#        150
#        12507
#        22322
#        35405
#        47410
#        59885
#        72450
#        85352
#        101605
#        116560
#
# Disc length: 1706 seconds
#
# Revision: 1
# Processed by: cddbd v1.4PL0 Copyright (c) Steve Scherf et al.
# Submitted via: ExactAudioCopy v0.90b4
#
DISCID=8f06a80a
DTITLE=Prairie Oyster - Everybody Knows
DYEAR=1991
DGENRE=Country
TTITLE0=Will I Do (Till The Real Thing Comes Along)
TTITLE1=One Precious Love
TTITLE2=Can't Say Goodbye
TTITLE3=Am I That Easy To Forget
TTITLE4=Just For Old Times Sake
TTITLE5=Everybody Knows
TTITLE6=Here's To You
TTITLE7=Did You Fall In Love With Me
TTITLE8=I Think That We Did Something
TTITLE9=Goodbye Lonesome (Hello, Baby Doll)
EXTD=
EXTT0=
EXTT1=
EXTT2=
EXTT3=
EXTT4=
EXTT5=
EXTT6=
EXTT7=
EXTT8=
EXTT9=
PLAYORDER=
